<svg width="12" height="13" viewBox="0 0 12 13" fill="none" xmlns="http://www.w3.org/2000/svg">
<g clip-path="url(#clip0_22684_339)">
<mask id="mask0_22684_339" style="mask-type:luminance" maskUnits="userSpaceOnUse" x="0" y="0" width="12" height="13">
<path d="M12 0.382812H0V12.6181H12V0.382812Z" fill="white"/>
</mask>
<g mask="url(#mask0_22684_339)">
<path d="M6.75016 1.46105V1.14752C6.75016 0.944703 6.67114 0.7502 6.53049 0.606789C6.38984 0.46338 6.19908 0.382812 6.00016 0.382812C5.80125 0.382812 5.61048 0.46338 5.46983 0.606789C5.32918 0.7502 5.25016 0.944703 5.25016 1.14752V1.46105C4.29634 1.59237 3.39321 1.97732 2.63152 2.57724C1.86984 3.17716 1.27641 3.97091 0.910878 4.87873C0.545351 5.78656 0.420588 6.77648 0.549128 7.74907C0.677667 8.72162 1.05498 9.64256 1.64316 10.4193C1.43613 10.5928 1.27062 10.8122 1.15921 11.0606C1.04779 11.3092 0.993393 11.5802 1.00016 11.8534C1.00016 12.0562 1.07918 12.2507 1.21983 12.3941C1.36048 12.5375 1.55125 12.6181 1.75016 12.6181C1.94907 12.6181 2.13984 12.5375 2.28049 12.3941C2.42115 12.2507 2.50016 12.0562 2.50016 11.8534C2.49252 11.7776 2.51107 11.7015 2.55261 11.6382C2.59415 11.575 2.65606 11.5284 2.72766 11.5068C3.67191 12.2276 4.81979 12.6173 5.99941 12.6173C7.17903 12.6173 8.32695 12.2276 9.27113 11.5068C9.34305 11.5282 9.4053 11.5745 9.44715 11.6378C9.48893 11.7011 9.50775 11.7775 9.50018 11.8534C9.50018 12.0562 9.57915 12.2507 9.71985 12.3941C9.86048 12.5375 10.0513 12.6181 10.2502 12.6181C10.4491 12.6181 10.6398 12.5375 10.7805 12.3941C10.9211 12.2507 11.0002 12.0562 11.0002 11.8534C11.0069 11.5802 10.9526 11.3092 10.8411 11.0606C10.7297 10.8122 10.5642 10.5928 10.3571 10.4193C10.9454 9.64256 11.3227 8.72162 11.4512 7.74907C11.5797 6.77648 11.455 5.78656 11.0894 4.87873C10.7239 3.97091 10.1305 3.17716 9.36878 2.57724C8.60708 1.97732 7.704 1.59237 6.75016 1.46105ZM2.00016 7.01027C2.00016 6.20362 2.23476 5.4151 2.67429 4.74441C3.11381 4.07371 3.73852 3.55097 4.46943 3.24228C5.20033 2.9336 6.0046 2.85283 6.78052 3.0102C7.55648 3.16757 8.2692 3.556 8.82855 4.12638C9.38798 4.69676 9.76898 5.42346 9.92333 6.21461C10.0777 7.00574 9.9984 7.82577 9.6957 8.57098C9.39293 9.31626 8.88023 9.95318 8.22248 10.4014C7.56465 10.8495 6.79128 11.0887 6.00016 11.0887C4.93966 11.0875 3.92294 10.6574 3.17305 9.89277C2.42316 9.12822 2.00135 8.09158 2.00016 7.01027Z" fill="#E50914"/>
<path d="M9.75 0.383796C9.5511 0.383796 9.3603 0.464363 9.21968 0.607774C9.07905 0.751184 9 0.94569 9 1.14851C9 1.35131 9.07905 1.54582 9.21968 1.68923C9.3603 1.83264 9.5511 1.91321 9.75 1.91321C9.84953 1.90531 9.94958 1.91985 10.043 1.9558C10.1364 1.99174 10.2209 2.0482 10.2906 2.12119C10.3602 2.19416 10.4132 2.28188 10.4459 2.37809C10.4786 2.47431 10.49 2.57667 10.4795 2.67792C10.4795 2.88072 10.5585 3.07524 10.6992 3.21864C10.8398 3.36205 11.0306 3.44262 11.2295 3.44262C11.4284 3.44262 11.6192 3.36205 11.7599 3.21864C11.9005 3.07524 11.9795 2.88072 11.9795 2.67792C11.9911 2.37525 11.9415 2.0734 11.8338 1.79111C11.7262 1.50882 11.5627 1.25212 11.3536 1.03697C11.1445 0.821823 10.8943 0.652811 10.6183 0.540445C10.3425 0.428079 10.0469 0.374758 9.75 0.383796Z" fill="#E50914"/>
<path d="M1.52118 2.67792C1.51068 2.57667 1.52217 2.47431 1.55481 2.37809C1.58746 2.28188 1.64048 2.19416 1.7101 2.12119C1.77972 2.0482 1.86424 1.99174 1.95767 1.9558C2.05109 1.91985 2.15112 1.90531 2.25068 1.91321C2.44959 1.91321 2.64036 1.83264 2.78101 1.68923C2.92166 1.54582 3.00068 1.35131 3.00068 1.14851C3.00068 0.94569 2.92166 0.751184 2.78101 0.607774C2.64036 0.464363 2.44959 0.383796 2.25068 0.383796C1.95375 0.374758 1.65816 0.428079 1.3823 0.540445C1.10643 0.652811 0.856181 0.821823 0.64709 1.03697C0.437998 1.25212 0.274535 1.50882 0.16686 1.79111C0.0591846 2.0734 0.00959697 2.37525 0.0211785 2.67792C0.0211785 2.88072 0.100196 3.07524 0.240848 3.21864C0.3815 3.36205 0.572266 3.44262 0.771176 3.44262C0.970091 3.44262 1.16085 3.36205 1.30151 3.21864C1.44216 3.07524 1.52118 2.88072 1.52118 2.67792Z" fill="#E50914"/>
<path d="M6.76953 6.69438V4.71685C6.76953 4.51404 6.69051 4.31954 6.54986 4.17612C6.40921 4.03272 6.21844 3.95215 6.01953 3.95215C5.82062 3.95215 5.62985 4.03272 5.4892 4.17612C5.34854 4.31954 5.26953 4.51404 5.26953 4.71685V6.90544C5.26958 7.17583 5.37498 7.43514 5.56253 7.62631L6.45903 8.54041C6.60048 8.67966 6.78993 8.75674 6.98658 8.75498C7.18323 8.7533 7.37134 8.67285 7.51043 8.53108C7.64948 8.3893 7.7283 8.19751 7.73003 7.99701C7.73175 7.7965 7.65615 7.60331 7.5195 7.45909L6.76953 6.69438Z" fill="#E50914"/>
</g>
</g>
<defs>
<clipPath id="clip0_22684_339">
<rect width="12" height="13" fill="white"/>
</clipPath>
</defs>
</svg>
