<svg width="12" height="13" viewBox="0 0 12 13" fill="none" xmlns="http://www.w3.org/2000/svg">
<g clip-path="url(#clip0_22670_570)">
<path d="M9.25 1.5H9V1.25C9 0.8355 8.664 0.5 8.25 0.5C7.836 0.5 7.5 0.8355 7.5 1.25V1.5H4.5V1.25C4.5 0.8355 4.164 0.5 3.75 0.5C3.336 0.5 3 0.8355 3 1.25V1.5H2.75C1.234 1.5 0 2.7335 0 4.25V9.75C0 11.2665 1.234 12.5 2.75 12.5H9.25C10.766 12.5 12 11.2665 12 9.75V4.25C12 2.7335 10.766 1.5 9.25 1.5ZM9.25 11H2.75C2.0605 11 1.5 10.439 1.5 9.75V5H10.5V9.75C10.5 10.439 9.9395 11 9.25 11ZM5 6.75V7.75C5 8.164 4.664 8.5 4.25 8.5H3.25C2.836 8.5 2.5 8.164 2.5 7.75V6.75C2.5 6.336 2.836 6 3.25 6H4.25C4.664 6 5 6.336 5 6.75Z" fill="#E50914"/>
</g>
<defs>
<clipPath id="clip0_22670_570">
<rect width="12" height="12" fill="white" transform="translate(0 0.5)"/>
</clipPath>
</defs>
</svg>
