<svg width="20" height="20" viewBox="0 0 20 20" fill="none" xmlns="http://www.w3.org/2000/svg">
<path d="M8.7666 0.5C12.9428 0.500111 16.3418 3.89893 16.3418 8.0752C16.3418 9.75103 15.7888 11.3646 14.7734 12.6846L14.5645 12.9443L14.2744 13.2881L14.5869 13.6123L19.3467 18.5635C19.5314 18.7558 19.5491 19.0489 19.4033 19.2607L19.3311 19.3457C19.2276 19.4453 19.0927 19.4999 18.9482 19.5C18.8336 19.5 18.7261 19.4666 18.6348 19.4033L18.5488 19.3301L13.7529 14.3418L13.4561 14.0332L13.1055 14.2793C11.828 15.1771 10.3353 15.6503 8.7666 15.6504C4.59033 15.6504 1.19152 12.2514 1.19141 8.0752C1.19141 3.89886 4.59026 0.5 8.7666 0.5ZM8.7666 1.60645C5.19937 1.60645 2.29785 4.50797 2.29785 8.0752C2.29796 11.6423 5.19944 14.5439 8.7666 14.5439C12.3337 14.5438 15.2352 11.6423 15.2354 8.0752C15.2354 4.50804 12.3337 1.60656 8.7666 1.60645Z" fill="#AFAFAF" stroke="#AFAFAF"/>
</svg>
