<svg width="16" height="16" viewBox="0 0 16 16" fill="none" xmlns="http://www.w3.org/2000/svg">
<mask id="path-1-inside-1_1_1453" fill="white">
<path d="M1.18041 4.15469C0.834534 4.25257 0.530961 4.46259 0.317378 4.75176C0.103794 5.04093 -0.00769805 5.39287 0.000413256 5.75229C0.015462 6.1851 0.20008 6.59463 0.514413 6.89248L2.66708 9.04417V13.3462H6.96575L9.14241 15.5246C9.29114 15.6751 9.46824 15.7946 9.66347 15.8762C9.85869 15.9578 10.0682 15.9999 10.2797 16C10.4188 15.9999 10.5573 15.982 10.6917 15.9467C10.9659 15.8774 11.2169 15.7367 11.419 15.5389C11.6211 15.341 11.7672 15.0931 11.8424 14.8205L16.0004 0L1.18041 4.15469ZM2.35575 5.91565L11.1617 3.44857L4.66708 9.94566V8.22937L2.35575 5.91565ZM10.0891 13.6503L7.78375 11.3459H6.06708L12.5564 4.85081L10.0891 13.6503Z"/>
</mask>
<path d="M1.18041 4.15469C0.834534 4.25257 0.530961 4.46259 0.317378 4.75176C0.103794 5.04093 -0.00769805 5.39287 0.000413256 5.75229C0.015462 6.1851 0.20008 6.59463 0.514413 6.89248L2.66708 9.04417V13.3462H6.96575L9.14241 15.5246C9.29114 15.6751 9.46824 15.7946 9.66347 15.8762C9.85869 15.9578 10.0682 15.9999 10.2797 16C10.4188 15.9999 10.5573 15.982 10.6917 15.9467C10.9659 15.8774 11.2169 15.7367 11.419 15.5389C11.6211 15.341 11.7672 15.0931 11.8424 14.8205L16.0004 0L1.18041 4.15469ZM2.35575 5.91565L11.1617 3.44857L4.66708 9.94566V8.22937L2.35575 5.91565ZM10.0891 13.6503L7.78375 11.3459H6.06708L12.5564 4.85081L10.0891 13.6503Z" fill="#AFAFAF"/>
<path d="M1.18041 4.15469L-4.57824 -16.3867L-4.60335 -16.3797L-4.62845 -16.3726L1.18041 4.15469ZM0.000413256 5.75229L-21.3275 6.23361L-21.3246 6.36363L-21.32 6.4936L0.000413256 5.75229ZM0.514413 6.89248L15.5959 -8.19588L15.3945 -8.3972L15.1878 -8.59308L0.514413 6.89248ZM2.66708 9.04417H24.0004V0.204788L17.7486 -6.04419L2.66708 9.04417ZM2.66708 13.3462H-18.6663V34.6796H2.66708V13.3462ZM6.96575 13.3462L22.0566 -1.73284L15.8072 -7.98711H6.96575V13.3462ZM9.14241 15.5246L24.3175 0.530298L24.2755 0.487791L24.2332 0.445519L9.14241 15.5246ZM10.2797 16L10.2704 37.3333L10.2813 37.3333L10.2922 37.3333L10.2797 16ZM10.6917 15.9467L5.46727 -4.73705L5.36889 -4.71221L5.27076 -4.68642L10.6917 15.9467ZM11.8424 14.8205L-8.69784 9.05774L-8.71088 9.10422L-8.72371 9.15076L11.8424 14.8205ZM16.0004 0L36.5407 5.76273L46.7956 -30.789L10.2418 -20.5414L16.0004 0ZM2.35575 5.91565L-3.39938 -14.6267L-38.497 -4.79382L-12.737 20.9928L2.35575 5.91565ZM11.1617 3.44857L26.2495 18.5307L83.8211 -39.0623L5.40662 -17.0938L11.1617 3.44857ZM4.66708 9.94566H-16.6663V61.4624L19.7548 25.0278L4.66708 9.94566ZM4.66708 8.22937H26.0004V-0.600739L19.7598 -6.84779L4.66708 8.22937ZM10.0891 13.6503L-4.99276 28.7383L20.7886 54.509L30.6302 19.4099L10.0891 13.6503ZM7.78375 11.3459L22.8656 -3.74216L16.6177 -9.98744H7.78375V11.3459ZM6.06708 11.3459L-9.02454 -3.73237L-45.4039 32.6792H6.06708V11.3459ZM12.5564 4.85081L33.0975 10.6105L55.1214 -67.9351L-2.53521 -10.2275L12.5564 4.85081ZM1.18041 4.15469L-4.62845 -16.3726C-9.52417 -14.9872 -13.8204 -12.0147 -16.8427 -7.92279L0.317378 4.75176L17.4774 17.4263C14.8823 20.9398 11.1932 23.4923 6.98928 24.6819L1.18041 4.15469ZM0.317378 4.75176L-16.8427 -7.92279C-19.8649 -3.83097 -21.4422 1.14854 -21.3275 6.23361L0.000413256 5.75229L21.3283 5.27098C21.4269 9.63719 20.0725 13.9128 17.4774 17.4263L0.317378 4.75176ZM0.000413256 5.75229L-21.32 6.4936C-21.1104 12.5226 -18.5387 18.228 -14.159 22.378L0.514413 6.89248L15.1878 -8.59308C18.9389 -5.03874 21.1413 -0.152347 21.3209 5.01098L0.000413256 5.75229ZM0.514413 6.89248L-14.5671 21.9808L-12.4144 24.1325L2.66708 9.04417L17.7486 -6.04419L15.5959 -8.19588L0.514413 6.89248ZM2.66708 9.04417H-18.6663V13.3462H2.66708H24.0004V9.04417H2.66708ZM2.66708 13.3462V34.6796H6.96575V13.3462V-7.98711H2.66708V13.3462ZM6.96575 13.3462L-8.12507 28.4253L-5.94841 30.6037L9.14241 15.5246L24.2332 0.445519L22.0566 -1.73284L6.96575 13.3462ZM9.14241 15.5246L-6.03264 30.5189C-3.90105 32.6762 -1.3626 34.3894 1.43588 35.5592L9.66347 15.8762L17.8911 -3.8067C20.2991 -2.80012 22.4833 -1.32595 24.3175 0.530298L9.14241 15.5246ZM9.66347 15.8762L1.43588 35.5592C4.23439 36.729 7.23718 37.332 10.2704 37.3333L10.2797 16L10.2891 -5.33333C12.8991 -5.33219 15.483 -4.81328 17.8911 -3.8067L9.66347 15.8762ZM10.2797 16L10.2922 37.3333C12.2566 37.3322 14.2128 37.0789 16.1127 36.5797L10.6917 15.9467L5.27076 -4.68642C6.90174 -5.11493 8.58097 -5.33235 10.2673 -5.33333L10.2797 16ZM10.6917 15.9467L15.9162 36.6304C19.8469 35.6375 23.4439 33.6205 26.3409 30.7851L11.419 15.5389L-3.50288 0.292613C-1.01013 -2.14711 2.08497 -3.88272 5.46727 -4.73705L10.6917 15.9467ZM11.419 15.5389L26.3409 30.7851C29.2379 27.9498 31.3314 24.3975 32.4085 20.4902L11.8424 14.8205L-8.72371 9.15076C-7.79689 5.78884 -5.99558 2.73228 -3.50288 0.292613L11.419 15.5389ZM11.8424 14.8205L32.3827 20.5832L36.5407 5.76273L16.0004 0L-4.53984 -5.76273L-8.69784 9.05774L11.8424 14.8205ZM16.0004 0L10.2418 -20.5414L-4.57824 -16.3867L1.18041 4.15469L6.93906 24.6961L21.7591 20.5414L16.0004 0ZM2.35575 5.91565L8.11088 26.458L16.9169 23.991L11.1617 3.44857L5.40662 -17.0938L-3.39938 -14.6267L2.35575 5.91565ZM11.1617 3.44857L-3.926 -11.6336L-10.4207 -5.13648L4.66708 9.94566L19.7548 25.0278L26.2495 18.5307L11.1617 3.44857ZM4.66708 9.94566H26.0004V8.22937H4.66708H-16.6663V9.94566H4.66708ZM4.66708 8.22937L19.7598 -6.84779L17.4485 -9.16151L2.35575 5.91565L-12.737 20.9928L-10.4256 23.3065L4.66708 8.22937ZM10.0891 13.6503L25.1709 -1.43778L22.8656 -3.74216L7.78375 11.3459L-7.29809 26.4339L-4.99276 28.7383L10.0891 13.6503ZM7.78375 11.3459V-9.98744H6.06708V11.3459V32.6792H7.78375V11.3459ZM6.06708 11.3459L21.1587 26.4242L27.648 19.9291L12.5564 4.85081L-2.53521 -10.2275L-9.02454 -3.73237L6.06708 11.3459ZM12.5564 4.85081L-7.98471 -0.908834L-10.452 7.89063L10.0891 13.6503L30.6302 19.4099L33.0975 10.6105L12.5564 4.85081Z" fill="#AFAFAF" mask="url(#path-1-inside-1_1_1453)"/>
</svg>
